<svg width="629" height="196" viewBox="0 0 629 196" fill="none" xmlns="http://www.w3.org/2000/svg">
<path d="M536.26 85.3294C539.668 77.0943 551.332 77.0943 554.74 85.3294L612.093 223.926C614.817 230.51 609.978 237.75 602.853 237.75L488.147 237.75C481.022 237.75 476.183 230.51 478.907 223.926L536.26 85.3294Z" fill="#338ABB" fill-opacity="0.52"/>
<path d="M465.464 58.0633C469.077 50.441 479.923 50.441 483.536 58.0633L559.095 217.467C562.24 224.101 557.401 231.75 550.059 231.75L398.941 231.75C391.599 231.75 386.76 224.101 389.905 217.467L465.464 58.0633Z" fill="url(#paint0_linear_1_42)"/>
<path d="M394.464 82.0633C398.077 74.441 408.923 74.441 412.536 82.0633L488.095 241.467C491.24 248.101 486.401 255.75 479.059 255.75L327.941 255.75C320.599 255.75 315.76 248.101 318.905 241.467L394.464 82.0633Z" fill="#338ABB" fill-opacity="0.52"/>
<path d="M301.714 34.5902C309.155 20.1179 329.845 20.1179 337.286 34.5902L427.922 210.854C434.766 224.164 425.102 240 410.135 240L228.865 240C213.898 240 204.234 224.164 211.078 210.854L301.714 34.5902Z" fill="url(#paint1_linear_1_42)"/>
<path d="M204.575 80.6578C208.274 73.3389 218.726 73.339 222.425 80.6578L315.718 265.239C319.08 271.891 314.246 279.75 306.793 279.75H120.207C112.754 279.75 107.92 271.891 111.282 265.239L204.575 80.6578Z" fill="#338ABB" fill-opacity="0.52"/>
<path d="M204.575 80.6578C208.274 73.3389 218.726 73.339 222.425 80.6578L315.718 265.239C319.08 271.891 314.246 279.75 306.793 279.75H120.207C112.754 279.75 107.92 271.891 111.282 265.239L204.575 80.6578Z" fill="url(#paint2_linear_1_42)"/>
<path d="M131.358 45.6244C134.873 37.6943 146.127 37.6943 149.642 45.6244L255.948 285.448C258.878 292.059 254.038 299.5 246.806 299.5H34.1945C26.9622 299.5 22.1216 292.06 25.0524 285.448L131.358 45.6244Z" fill="url(#paint3_linear_1_42)"/>
<defs>
<linearGradient id="paint0_linear_1_42" x1="474.5" y1="39" x2="474.5" y2="296" gradientUnits="userSpaceOnUse">
<stop stop-color="#337CBB" stop-opacity="0.62"/>
</linearGradient>
<linearGradient id="paint1_linear_1_42" x1="319.5" y1="0" x2="319.5" y2="320" gradientUnits="userSpaceOnUse">
<stop stop-color="#337CBB"/>
<stop offset="1" stop-color="#00E0FF" stop-opacity="0.88"/>
</linearGradient>
<linearGradient id="paint2_linear_1_42" x1="213.5" y1="63" x2="213.5" y2="352" gradientUnits="userSpaceOnUse">
<stop stop-color="#338ABB"/>
<stop offset="1" stop-color="#224C70"/>
</linearGradient>
<linearGradient id="paint3_linear_1_42" x1="140.5" y1="25" x2="140.5" y2="391" gradientUnits="userSpaceOnUse">
<stop stop-color="#337CBB"/>
<stop offset="1" stop-color="#00E0FF" stop-opacity="0.88"/>
</linearGradient>
</defs>
</svg>
