<svg width="26" height="80" viewBox="0 0 26 80" fill="none" xmlns="http://www.w3.org/2000/svg">
<path d="M6.35556 3.5C6.35556 5.433 4.93282 7 3.17778 7C1.42274 7 0 5.433 0 3.5C0 1.567 1.42274 0 3.17778 0C4.93282 0 6.35556 1.567 6.35556 3.5Z" fill="url(#paint0_linear_1_50)"/>
<path d="M16.1778 3.5C16.1778 5.433 14.755 7 13 7C11.245 7 9.82222 5.433 9.82222 3.5C9.82222 1.567 11.245 0 13 0C14.755 0 16.1778 1.567 16.1778 3.5Z" fill="url(#paint1_linear_1_50)"/>
<path d="M26 3.5C26 5.433 24.5773 7 22.8222 7C21.0672 7 19.6444 5.433 19.6444 3.5C19.6444 1.567 21.0672 0 22.8222 0C24.5773 0 26 1.567 26 3.5Z" fill="url(#paint2_linear_1_50)"/>
<path d="M6.35556 15.5C6.35556 17.433 4.93282 19 3.17778 19C1.42274 19 0 17.433 0 15.5C0 13.567 1.42274 12 3.17778 12C4.93282 12 6.35556 13.567 6.35556 15.5Z" fill="url(#paint3_linear_1_50)"/>
<path d="M16.1778 15.5C16.1778 17.433 14.755 19 13 19C11.245 19 9.82222 17.433 9.82222 15.5C9.82222 13.567 11.245 12 13 12C14.755 12 16.1778 13.567 16.1778 15.5Z" fill="url(#paint4_linear_1_50)"/>
<path d="M26 15.5C26 17.433 24.5773 19 22.8222 19C21.0672 19 19.6444 17.433 19.6444 15.5C19.6444 13.567 21.0672 12 22.8222 12C24.5773 12 26 13.567 26 15.5Z" fill="url(#paint5_linear_1_50)"/>
<path d="M6.35556 27C6.35556 29.2091 4.93282 31 3.17778 31C1.42274 31 0 29.2091 0 27C0 24.7909 1.42274 23 3.17778 23C4.93282 23 6.35556 24.7909 6.35556 27Z" fill="url(#paint6_linear_1_50)"/>
<path d="M16.1778 27C16.1778 29.2091 14.755 31 13 31C11.245 31 9.82222 29.2091 9.82222 27C9.82222 24.7909 11.245 23 13 23C14.755 23 16.1778 24.7909 16.1778 27Z" fill="url(#paint7_linear_1_50)"/>
<path d="M26 27C26 29.2091 24.5773 31 22.8222 31C21.0672 31 19.6444 29.2091 19.6444 27C19.6444 24.7909 21.0672 23 22.8222 23C24.5773 23 26 24.7909 26 27Z" fill="url(#paint8_linear_1_50)"/>
<path d="M6.35556 38.5C6.35556 40.433 4.93282 42 3.17778 42C1.42274 42 0 40.433 0 38.5C0 36.567 1.42274 35 3.17778 35C4.93282 35 6.35556 36.567 6.35556 38.5Z" fill="url(#paint9_linear_1_50)"/>
<path d="M16.1778 38.5C16.1778 40.433 14.755 42 13 42C11.245 42 9.82222 40.433 9.82222 38.5C9.82222 36.567 11.245 35 13 35C14.755 35 16.1778 36.567 16.1778 38.5Z" fill="url(#paint10_linear_1_50)"/>
<path d="M26 38.5C26 40.433 24.5773 42 22.8222 42C21.0672 42 19.6444 40.433 19.6444 38.5C19.6444 36.567 21.0672 35 22.8222 35C24.5773 35 26 36.567 26 38.5Z" fill="url(#paint11_linear_1_50)"/>
<path d="M6.35556 51.5C6.35556 53.433 4.93282 55 3.17778 55C1.42274 55 0 53.433 0 51.5C0 49.567 1.42274 48 3.17778 48C4.93282 48 6.35556 49.567 6.35556 51.5Z" fill="url(#paint12_linear_1_50)"/>
<path d="M16.1778 51.5C16.1778 53.433 14.755 55 13 55C11.245 55 9.82222 53.433 9.82222 51.5C9.82222 49.567 11.245 48 13 48C14.755 48 16.1778 49.567 16.1778 51.5Z" fill="url(#paint13_linear_1_50)"/>
<path d="M26 51.5C26 53.433 24.5773 55 22.8222 55C21.0672 55 19.6444 53.433 19.6444 51.5C19.6444 49.567 21.0672 48 22.8222 48C24.5773 48 26 49.567 26 51.5Z" fill="url(#paint14_linear_1_50)"/>
<path d="M6.35556 63.5C6.35556 65.433 4.93282 67 3.17778 67C1.42274 67 0 65.433 0 63.5C0 61.567 1.42274 60 3.17778 60C4.93282 60 6.35556 61.567 6.35556 63.5Z" fill="url(#paint15_linear_1_50)"/>
<path d="M16.1778 63.5C16.1778 65.433 14.755 67 13 67C11.245 67 9.82222 65.433 9.82222 63.5C9.82222 61.567 11.245 60 13 60C14.755 60 16.1778 61.567 16.1778 63.5Z" fill="url(#paint16_linear_1_50)"/>
<path d="M26 63.5C26 65.433 24.5773 67 22.8222 67C21.0672 67 19.6444 65.433 19.6444 63.5C19.6444 61.567 21.0672 60 22.8222 60C24.5773 60 26 61.567 26 63.5Z" fill="url(#paint17_linear_1_50)"/>
<path d="M6.35556 76.5C6.35556 78.433 4.93282 80 3.17778 80C1.42274 80 0 78.433 0 76.5C0 74.567 1.42274 73 3.17778 73C4.93282 73 6.35556 74.567 6.35556 76.5Z" fill="url(#paint18_linear_1_50)"/>
<path d="M16.1778 76.5C16.1778 78.433 14.755 80 13 80C11.245 80 9.82222 78.433 9.82222 76.5C9.82222 74.567 11.245 73 13 73C14.755 73 16.1778 74.567 16.1778 76.5Z" fill="url(#paint19_linear_1_50)"/>
<path d="M26 76.5C26 78.433 24.5773 80 22.8222 80C21.0672 80 19.6444 78.433 19.6444 76.5C19.6444 74.567 21.0672 73 22.8222 73C24.5773 73 26 74.567 26 76.5Z" fill="url(#paint20_linear_1_50)"/>
<defs>
<linearGradient id="paint0_linear_1_50" x1="-20.3816" y1="17.9083" x2="-20.3816" y2="24.9083" gradientUnits="userSpaceOnUse">
<stop stop-color="white"/>
<stop offset="1" stop-color="#337CBB"/>
</linearGradient>
<linearGradient id="paint1_linear_1_50" x1="-20.3816" y1="17.9083" x2="-20.3816" y2="24.9083" gradientUnits="userSpaceOnUse">
<stop stop-color="white"/>
<stop offset="1" stop-color="#337CBB"/>
</linearGradient>
<linearGradient id="paint2_linear_1_50" x1="-20.3816" y1="17.9083" x2="-20.3816" y2="24.9083" gradientUnits="userSpaceOnUse">
<stop stop-color="white"/>
<stop offset="1" stop-color="#337CBB"/>
</linearGradient>
<linearGradient id="paint3_linear_1_50" x1="-20.3816" y1="29.9083" x2="-20.3816" y2="36.9083" gradientUnits="userSpaceOnUse">
<stop stop-color="white"/>
<stop offset="1" stop-color="#337CBB"/>
</linearGradient>
<linearGradient id="paint4_linear_1_50" x1="-20.3816" y1="29.9083" x2="-20.3816" y2="36.9083" gradientUnits="userSpaceOnUse">
<stop stop-color="white"/>
<stop offset="1" stop-color="#337CBB"/>
</linearGradient>
<linearGradient id="paint5_linear_1_50" x1="-20.3816" y1="29.9083" x2="-20.3816" y2="36.9083" gradientUnits="userSpaceOnUse">
<stop stop-color="white"/>
<stop offset="1" stop-color="#337CBB"/>
</linearGradient>
<linearGradient id="paint6_linear_1_50" x1="-20.3816" y1="43.4667" x2="-20.3816" y2="51.4667" gradientUnits="userSpaceOnUse">
<stop stop-color="white"/>
<stop offset="1" stop-color="#337CBB"/>
</linearGradient>
<linearGradient id="paint7_linear_1_50" x1="-20.3816" y1="43.4667" x2="-20.3816" y2="51.4667" gradientUnits="userSpaceOnUse">
<stop stop-color="white"/>
<stop offset="1" stop-color="#337CBB"/>
</linearGradient>
<linearGradient id="paint8_linear_1_50" x1="-20.3816" y1="43.4667" x2="-20.3816" y2="51.4667" gradientUnits="userSpaceOnUse">
<stop stop-color="white"/>
<stop offset="1" stop-color="#337CBB"/>
</linearGradient>
<linearGradient id="paint9_linear_1_50" x1="-20.3816" y1="52.9083" x2="-20.3816" y2="59.9083" gradientUnits="userSpaceOnUse">
<stop stop-color="white"/>
<stop offset="1" stop-color="#337CBB"/>
</linearGradient>
<linearGradient id="paint10_linear_1_50" x1="-20.3816" y1="52.9083" x2="-20.3816" y2="59.9083" gradientUnits="userSpaceOnUse">
<stop stop-color="white"/>
<stop offset="1" stop-color="#337CBB"/>
</linearGradient>
<linearGradient id="paint11_linear_1_50" x1="-20.3816" y1="52.9083" x2="-20.3816" y2="59.9083" gradientUnits="userSpaceOnUse">
<stop stop-color="white"/>
<stop offset="1" stop-color="#337CBB"/>
</linearGradient>
<linearGradient id="paint12_linear_1_50" x1="-20.3816" y1="65.9083" x2="-20.3816" y2="72.9083" gradientUnits="userSpaceOnUse">
<stop stop-color="white"/>
<stop offset="1" stop-color="#337CBB"/>
</linearGradient>
<linearGradient id="paint13_linear_1_50" x1="-20.3816" y1="65.9083" x2="-20.3816" y2="72.9083" gradientUnits="userSpaceOnUse">
<stop stop-color="white"/>
<stop offset="1" stop-color="#337CBB"/>
</linearGradient>
<linearGradient id="paint14_linear_1_50" x1="-20.3816" y1="65.9083" x2="-20.3816" y2="72.9083" gradientUnits="userSpaceOnUse">
<stop stop-color="white"/>
<stop offset="1" stop-color="#337CBB"/>
</linearGradient>
<linearGradient id="paint15_linear_1_50" x1="-20.3816" y1="77.9083" x2="-20.3816" y2="84.9083" gradientUnits="userSpaceOnUse">
<stop stop-color="white"/>
<stop offset="1" stop-color="#337CBB"/>
</linearGradient>
<linearGradient id="paint16_linear_1_50" x1="-20.3816" y1="77.9083" x2="-20.3816" y2="84.9083" gradientUnits="userSpaceOnUse">
<stop stop-color="white"/>
<stop offset="1" stop-color="#337CBB"/>
</linearGradient>
<linearGradient id="paint17_linear_1_50" x1="-20.3816" y1="77.9083" x2="-20.3816" y2="84.9083" gradientUnits="userSpaceOnUse">
<stop stop-color="white"/>
<stop offset="1" stop-color="#337CBB"/>
</linearGradient>
<linearGradient id="paint18_linear_1_50" x1="-20.3816" y1="90.9083" x2="-20.3816" y2="97.9083" gradientUnits="userSpaceOnUse">
<stop stop-color="white"/>
<stop offset="1" stop-color="#337CBB"/>
</linearGradient>
<linearGradient id="paint19_linear_1_50" x1="-20.3816" y1="90.9083" x2="-20.3816" y2="97.9083" gradientUnits="userSpaceOnUse">
<stop stop-color="white"/>
<stop offset="1" stop-color="#337CBB"/>
</linearGradient>
<linearGradient id="paint20_linear_1_50" x1="-20.3816" y1="90.9083" x2="-20.3816" y2="97.9083" gradientUnits="userSpaceOnUse">
<stop stop-color="white"/>
<stop offset="1" stop-color="#337CBB"/>
</linearGradient>
</defs>
</svg>
